<svg version="1.1" id="Layer_1" xmlns="http://www.w3.org/2000/svg" xmlns:xlink="http://www.w3.org/1999/xlink" x="0px" y="0px"
	 width="100%" viewBox="0 0 880 344" enable-background="new 0 0 880 344" xml:space="preserve">
<path fill="#FEFDFC" opacity="1.000000" stroke="none" 
	d="
M331.000000,345.000000 
	C302.645782,345.000000 274.291534,345.000000 245.518219,344.683350 
	C245.162338,343.944824 245.225540,343.522980 245.582123,343.147797 
	C246.250778,343.092163 246.626038,342.989838 247.354248,342.909729 
	C248.277573,342.334290 248.847961,341.736664 249.692963,341.200195 
	C250.312119,341.140900 250.656708,341.020386 251.347504,340.910645 
	C252.233887,340.318146 252.774078,339.714874 253.611694,339.147247 
	C254.273132,339.047668 254.637177,338.912476 255.317413,338.776550 
	C256.092133,338.185486 256.550659,337.595184 257.004578,337.002441 
	C257.000000,337.000000 257.004211,337.008209 257.345978,336.989136 
	C258.170044,336.340668 258.652344,335.711273 259.090515,335.062500 
	C259.046387,335.043182 259.079895,335.133514 259.425659,335.104889 
	C260.244812,334.426086 260.718262,333.775909 261.141266,333.108032 
	C261.090820,333.090271 261.131805,333.189026 261.485229,333.162323 
	C262.941162,331.788788 264.043640,330.441986 265.098999,329.074707 
	C265.051880,329.054230 265.092743,329.148499 265.433441,329.107910 
	C266.196106,328.385101 266.618042,327.702881 267.017792,327.012695 
	C266.995575,327.004700 267.023315,327.043121 267.338440,326.974487 
	C268.042328,326.271240 268.431091,325.636627 268.990234,324.769226 
	C269.152161,324.156555 269.143707,323.776672 269.485901,323.323975 
	C270.212646,322.495483 270.588806,321.739838 270.986572,320.984802 
	C271.008179,320.985474 270.977478,320.954742 271.306610,320.831604 
	C272.075348,319.472626 272.514923,318.236816 273.096985,316.763275 
	C273.207184,316.162872 273.174896,315.800171 273.482819,315.351013 
	C274.158081,314.510284 274.493073,313.756042 274.945923,312.697144 
	C275.053528,311.958710 275.043243,311.524902 275.361389,310.957153 
	C276.057129,309.549561 276.424438,308.275879 276.894379,306.627197 
	C277.016907,305.220215 277.036804,304.188263 277.405884,302.991638 
	C278.117523,300.218628 278.479950,297.610321 278.921783,294.539032 
	C279.001160,273.698456 279.001160,253.320862 279.001160,233.004730 
	C261.307343,233.004730 244.242477,233.004730 226.876892,233.004730 
	C226.876892,249.114594 226.876892,264.873596 226.527237,280.829224 
	C225.821518,284.349823 225.465454,287.673767 225.001343,291.284729 
	C224.904144,291.978851 224.914993,292.386047 224.612335,292.883972 
	C223.938721,293.649200 223.578613,294.323669 223.067688,295.259369 
	C222.911072,295.921051 222.905289,296.321442 222.551956,296.785278 
	C221.711426,297.532928 221.218414,298.217163 220.425293,298.878448 
	C219.749619,298.972382 219.374039,299.089294 218.661743,299.193359 
	C217.753632,299.743774 217.182251,300.307037 216.234650,300.798035 
	C214.330017,300.784424 212.801620,300.843079 211.133652,300.563995 
	C209.667770,299.807312 208.341461,299.388428 207.009125,298.986694 
	C207.003082,299.003845 207.033005,298.982422 206.960297,298.665558 
	C206.254913,297.906586 205.622223,297.464447 204.995667,297.011230 
	C205.001801,297.000122 204.978836,297.009796 204.943207,296.672455 
	C204.299622,295.812225 203.691681,295.289368 203.111130,294.463623 
	C203.040924,293.773193 202.943298,293.385590 202.879501,292.624939 
	C202.311493,291.066711 201.709641,289.881531 201.175476,288.250336 
	C201.181671,283.807312 201.065948,279.810333 201.067001,275.813324 
	C201.079239,229.675964 201.109177,183.538589 201.490509,137.268463 
	C202.204712,135.757721 202.562805,134.379745 203.061310,132.758575 
	C203.180176,132.145569 203.158646,131.775757 203.486420,131.337784 
	C204.271576,130.541733 204.707413,129.813843 205.098587,129.070663 
	C205.053925,129.055389 205.085114,129.144516 205.442413,129.119797 
	C206.873093,128.399063 207.946457,127.703064 209.418671,127.035477 
	C210.878540,126.982964 211.939545,126.902039 213.331604,126.883476 
	C214.108078,126.905602 214.553543,126.865372 215.378128,126.897331 
	C216.783768,126.999092 217.810257,127.028656 218.933380,127.363228 
	C219.685806,128.040726 220.341599,128.413208 221.255280,128.985855 
	C222.073456,129.791321 222.633743,130.396622 223.197556,131.326294 
	C223.778381,132.163055 224.355698,132.675446 224.901276,133.495392 
	C224.951767,134.202576 225.034012,134.602203 225.073547,135.447601 
	C225.643845,139.062836 226.256836,142.232315 226.768372,145.836212 
	C226.778549,159.180435 226.890198,172.090210 227.020508,185.420715 
	C227.376251,186.148804 227.712158,186.723679 228.050568,186.725143 
	C244.431488,186.796310 260.812714,186.835327 277.193420,186.767395 
	C277.722046,186.765213 278.245850,185.612244 278.877655,184.538025 
	C278.931793,168.053131 278.880157,152.025909 278.892639,135.559845 
	C278.351044,132.265427 277.745331,129.409866 277.226837,126.162949 
	C277.141205,124.180603 276.968353,122.589622 276.843567,120.635689 
	C276.271088,119.154152 275.650574,118.035561 275.062500,116.591904 
	C275.009918,115.844170 274.924866,115.421509 274.871582,114.647247 
	C274.317200,113.713615 273.731049,113.131592 273.216797,112.282951 
	C273.173370,111.677185 273.058044,111.338036 272.964478,110.635239 
	C272.315277,109.199203 271.644379,108.126816 270.990845,107.035172 
	C271.008240,107.015907 270.956512,107.019493 270.953430,106.668175 
	C270.339264,105.766983 269.728180,105.217110 269.155853,104.372620 
	C269.057770,103.718254 268.920959,103.358513 268.782501,102.681976 
	C268.184540,101.915733 267.588226,101.466286 266.996552,101.008659 
	C267.001221,101.000481 266.984711,101.007126 266.958191,100.670349 
	C266.306030,99.857101 265.680450,99.380623 265.034912,98.942398 
	C265.014984,98.980644 265.094299,98.946770 265.062439,98.605225 
	C264.378052,97.801346 263.725464,97.338997 263.054565,96.920166 
	C263.036255,96.963692 263.123199,96.926811 263.086273,96.585693 
	C262.389923,95.789261 261.730530,95.333939 261.053314,94.922112 
	C261.035522,94.965614 261.121552,94.927742 261.081787,94.588593 
	C260.370728,93.815285 259.699432,93.381134 259.016479,92.974457 
	C259.004761,93.001945 259.055176,92.969864 258.995911,92.642746 
	C258.280121,91.902702 257.623627,91.489777 256.970947,91.040535 
	C256.974762,91.004227 256.910553,91.039024 256.834778,90.743011 
	C256.172913,90.062325 255.586853,89.677650 254.733948,89.127899 
	C254.050400,88.948906 253.633698,88.934990 253.144226,88.589088 
	C252.381516,87.873886 251.691605,87.490669 250.768646,86.950607 
	C250.167023,86.815170 249.798462,86.836586 249.352249,86.510147 
	C248.516891,85.800171 247.759186,85.438049 246.767838,84.924103 
	C246.169571,84.800430 245.804947,84.828583 245.354980,84.515121 
	C244.513702,83.836273 243.757736,83.499054 242.709686,83.040604 
	C241.997543,82.927032 241.577499,82.934669 241.039810,82.596069 
	C239.615479,81.882843 238.308792,81.515854 236.657227,81.039917 
	C235.356812,80.906303 234.401291,80.881630 233.308960,80.499435 
	C231.782120,79.824387 230.392059,79.506859 228.578522,79.099335 
	C225.862762,78.973389 223.570480,78.937447 221.087036,78.549606 
	C216.151260,78.426636 211.406647,78.655571 206.245514,78.795990 
	C203.552155,78.855453 201.275314,79.003441 198.596558,79.095978 
	C196.401520,79.671303 194.608383,80.302078 192.462097,80.878555 
	C191.405640,80.930534 190.702362,81.036812 189.639709,81.100021 
	C188.417175,81.667656 187.554001,82.278366 186.401764,82.835526 
	C185.741348,82.882332 185.369980,82.982681 184.635315,83.051262 
	C183.184570,83.681328 182.097092,84.343155 181.005127,85.002182 
	C181.000610,84.999390 181.003403,85.007614 180.638580,84.992393 
	C179.206085,85.662674 178.138428,86.348175 177.046158,87.013802 
	C177.021545,86.993927 177.025116,87.057098 176.680328,87.063995 
	C175.810715,87.685120 175.285873,88.299339 174.422760,88.905838 
	C173.055725,89.663078 172.026932,90.428032 170.684540,91.211502 
	C169.940598,91.831642 169.510254,92.433250 169.046906,93.020554 
	C169.013901,93.006248 169.032974,93.075623 168.707993,93.114792 
	C167.949417,93.781105 167.515823,94.408241 167.045990,95.026993 
	C167.009781,95.018616 167.038010,95.087402 166.724640,95.147842 
	C165.993637,95.825516 165.576004,96.442749 165.100098,97.061897 
	C165.041824,97.063812 165.067551,97.177574 164.780334,97.248581 
	C164.107407,97.879677 163.721680,98.439766 163.155655,99.259674 
	C162.956696,99.939163 162.938049,100.358826 162.582092,100.849052 
	C161.844284,101.619499 161.443756,102.319397 161.017746,103.016167 
	C160.992264,103.013046 161.025375,103.052322 160.703735,103.150162 
	C159.959641,104.164932 159.537186,105.081863 159.046127,106.225388 
	C158.977509,106.451973 158.974014,106.925453 158.672318,107.018417 
	C158.004135,107.740623 157.637650,108.369850 157.136169,109.307076 
	C156.995697,110.062462 156.990204,110.509857 156.651306,111.082344 
	C155.910660,112.471016 155.503403,113.734581 154.963867,115.264435 
	C154.852768,115.923439 154.873978,116.316170 154.539185,116.827957 
	C153.823837,118.297363 153.464508,119.647728 152.989899,121.288368 
	C152.894485,121.992386 152.914352,122.406113 152.585602,122.957153 
	C151.878052,124.729050 151.519104,126.363647 151.046021,128.249527 
	C150.644989,128.724182 150.358093,128.947540 149.725357,128.899536 
	C149.233917,119.487686 148.978134,110.347404 148.962769,101.206734 
	C148.910385,70.054008 148.971512,38.901043 148.857864,7.748651 
	C148.852173,6.187393 147.612579,4.630637 146.965027,3.015914 
	C146.982559,2.960044 147.067673,2.879630 147.061310,2.566230 
	C147.036652,1.835220 147.018326,1.417610 147.000000,1.000000 
	C391.553619,1.000000 636.107239,1.000000 880.830444,1.000000 
	C880.830444,115.666443 880.830444,230.333221 880.830444,345.000000 
	C879.998962,345.000000 878.999451,345.000000 877.589905,344.538361 
	C877.179810,256.484741 877.179810,168.892761 877.179810,81.016327 
	C859.563110,81.016327 842.504028,81.016327 824.894287,81.016327 
	C824.894287,112.346710 824.894287,143.410400 824.894287,174.647461 
	C815.999756,174.647461 807.663940,174.647461 798.787354,174.647461 
	C798.787354,143.086700 798.787354,112.029854 798.787354,81.175552 
	C781.171021,81.175552 764.109009,81.175552 746.758850,81.175552 
	C746.758850,83.104454 746.758789,84.590919 746.758789,86.077385 
	C746.758728,170.892090 746.757507,255.706802 746.768677,340.521515 
	C746.768921,342.014343 746.919556,343.507172 747.000000,345.000000 
	C729.312439,345.000000 711.624878,345.000000 693.613770,344.669312 
	C693.479187,344.081482 693.616638,343.673553 693.864502,343.588898 
	C705.071899,339.759705 713.099731,332.280823 719.247864,322.301208 
	C726.660645,310.269073 727.758850,296.677765 728.578369,283.290802 
	C729.503235,268.184418 728.632385,252.975220 728.906616,237.817322 
	C728.985901,233.433548 727.369568,232.530884 723.429932,232.577637 
	C708.769043,232.751663 694.104858,232.636734 679.442017,232.663910 
	C678.021912,232.666534 676.602234,232.901703 674.864563,233.057388 
	C674.864563,235.457626 674.923096,237.437943 674.855408,239.413940 
	C674.266113,256.613098 673.631531,273.810699 673.062012,291.010498 
	C672.878601,296.547455 666.486572,300.234772 662.359985,300.700531 
	C658.082642,301.183289 651.747131,296.400970 651.149231,292.153992 
	C650.303650,286.148224 649.367981,280.086700 649.341431,274.045197 
	C649.177917,236.888733 649.152039,199.730652 649.337646,162.574387 
	C649.381958,153.692871 650.292480,144.807190 651.018616,135.940948 
	C651.415588,131.093613 655.582520,127.326492 660.327087,127.012589 
	C667.018921,126.569839 671.898315,128.797028 672.791504,133.259491 
	C673.786499,138.230423 674.636536,143.306671 674.771362,148.357849 
	C675.064758,159.347229 674.848511,170.349869 674.880066,181.346970 
	C674.885071,183.103104 675.094360,184.858643 675.207520,186.588776 
	C692.705078,186.588776 709.629150,186.588776 726.927490,186.588776 
	C727.037537,184.543716 727.213562,182.756317 727.217163,180.968552 
	C727.241699,168.805054 727.252441,156.641388 727.222961,144.477905 
	C727.198303,134.290421 727.068176,124.295227 723.329651,114.375320 
	C719.249146,103.548195 712.476074,95.223869 703.147034,89.217857 
	C697.165100,85.366699 690.242493,82.444664 683.338928,80.696228 
	C675.325012,78.666603 666.876404,77.640091 658.605225,77.573486 
	C652.365662,77.523239 645.881958,78.998825 639.919556,81.015244 
	C633.315857,83.248543 626.445496,85.903206 620.979431,90.065842 
	C603.832520,103.123772 597.967834,122.521255 597.427002,142.525986 
	C596.238403,186.483841 596.997131,230.493225 596.852783,274.481232 
	C596.814392,286.200714 596.897217,297.825745 600.947937,309.076141 
	C605.087341,320.573059 611.242310,330.487885 621.619202,337.380371 
	C625.421997,339.906311 629.206909,342.459351 633.000000,345.000000 
	C616.645752,345.000000 600.291565,345.000000 583.414124,344.581818 
	C581.699097,334.897766 580.322205,325.651093 579.357849,316.361603 
	C577.826660,301.611664 576.581665,286.832123 575.193909,272.067169 
	C574.578064,265.514069 573.887695,258.967987 573.269409,252.415085 
	C571.892334,237.819244 570.555359,223.219589 569.168762,208.624634 
	C568.593506,202.569824 567.889893,196.527176 567.319946,190.471893 
	C565.914856,175.543640 564.567627,160.609924 563.167603,145.681168 
	C562.568542,139.292938 561.802551,132.919266 561.278381,126.525368 
	C560.427856,116.151764 559.812256,105.758286 558.898865,95.390694 
	C558.472595,90.551781 557.581482,85.753815 556.933838,81.169281 
	C526.578613,81.169281 496.861023,81.169281 467.624756,81.169281 
	C466.758392,84.884026 465.663574,88.027512 465.335785,91.249046 
	C463.817932,106.165787 462.528595,121.105667 461.124634,136.034180 
	C460.524017,142.421066 459.824341,148.798584 459.203400,155.183640 
	C457.848755,169.113663 456.518494,183.046036 455.172668,196.976898 
	C454.523773,203.693588 453.853790,210.408234 453.208221,217.125229 
	C451.853241,231.222931 450.523682,245.323090 449.154297,259.419403 
	C447.865540,272.686218 446.501801,285.945862 445.239044,299.215118 
	C443.787048,314.473022 442.409729,329.738068 441.000000,345.000000 
	C424.645782,345.000000 408.291534,345.000000 391.472168,344.622650 
	C394.367004,342.172760 397.920074,340.355621 401.055298,337.985718 
	C419.846588,323.781372 426.096710,303.240173 426.624512,281.327301 
	C427.599365,240.855499 427.037872,200.343781 426.876770,159.849655 
	C426.839447,150.465393 425.723022,141.089966 425.314606,131.701279 
	C424.953949,123.410873 422.505249,115.758133 418.951691,108.367088 
	C410.669037,91.140091 396.019409,82.316895 378.033142,79.336563 
	C369.159698,77.866226 359.908386,76.143974 350.660706,78.696281 
	C344.104950,80.505646 337.061676,80.819717 330.747253,83.173073 
	C319.277924,87.447632 310.288605,94.838463 304.300140,106.049744 
	C298.383148,117.127144 295.341980,128.903549 295.224396,141.104126 
	C294.808441,184.261444 295.100586,227.425171 294.988312,270.586121 
	C294.953949,283.800110 296.393921,296.627808 300.649506,309.292603 
	C305.545959,323.864685 314.759125,334.467407 327.469330,342.490112 
	C328.688568,343.259644 329.825104,344.160217 331.000000,345.000000 
z"/>
<path fill="#CD8E43" opacity="1.000000" stroke="none" 
	d="
M747.468628,345.000000 
	C746.919556,343.507172 746.768921,342.014343 746.768677,340.521515 
	C746.757507,255.706802 746.758728,170.892090 746.758789,86.077385 
	C746.758789,84.590919 746.758850,83.104454 746.758850,81.175552 
	C764.109009,81.175552 781.171021,81.175552 798.787354,81.175552 
	C798.787354,112.029854 798.787354,143.086700 798.787354,174.647461 
	C807.663940,174.647461 815.999756,174.647461 824.894287,174.647461 
	C824.894287,143.410400 824.894287,112.346710 824.894287,81.016327 
	C842.504028,81.016327 859.563110,81.016327 877.179810,81.016327 
	C877.179810,168.892761 877.179810,256.484741 877.089905,344.538361 
	C859.979126,345.000000 842.958191,345.000000 825.422668,344.533203 
	C824.900452,340.072968 824.886597,336.079590 824.886353,332.086182 
	C824.884644,298.640991 824.886902,265.195801 824.883972,231.750595 
	C824.883362,225.330200 824.875305,225.328796 818.263428,225.324753 
	C813.937195,225.322113 809.571045,225.692871 805.294800,225.230423 
	C800.014709,224.659409 798.978210,226.794952 798.998596,231.690048 
	C799.156128,269.459381 799.034851,307.229858 799.000000,345.000000 
	C781.979126,345.000000 764.958191,345.000000 747.468628,345.000000 
z"/>
<path fill="#CD8F44" opacity="1.000000" stroke="none" 
	d="
M331.468658,345.000000 
	C329.825104,344.160217 328.688568,343.259644 327.469330,342.490112 
	C314.759125,334.467407 305.545959,323.864685 300.649506,309.292603 
	C296.393921,296.627808 294.953949,283.800110 294.988312,270.586121 
	C295.100586,227.425171 294.808441,184.261444 295.224396,141.104126 
	C295.341980,128.903549 298.383148,117.127144 304.300140,106.049744 
	C310.288605,94.838463 319.277924,87.447632 330.747253,83.173073 
	C337.061676,80.819717 344.104950,80.505646 350.660706,78.696281 
	C359.908386,76.143974 369.159698,77.866226 378.033142,79.336563 
	C396.019409,82.316895 410.669037,91.140091 418.951691,108.367088 
	C422.505249,115.758133 424.953949,123.410873 425.314606,131.701279 
	C425.723022,141.089966 426.839447,150.465393 426.876770,159.849655 
	C427.037872,200.343781 427.599365,240.855499 426.624512,281.327301 
	C426.096710,303.240173 419.846588,323.781372 401.055298,337.985718 
	C397.920074,340.355621 394.367004,342.172760 391.003479,344.622650 
	C371.312439,345.000000 351.624878,345.000000 331.468658,345.000000 
M347.334503,158.501984 
	C347.336365,197.828003 347.176544,237.155380 347.506714,276.478638 
	C347.558838,282.688049 349.076141,289.180725 351.399689,294.944336 
	C352.478577,297.620514 357.013855,300.127960 360.169250,300.381042 
	C363.045502,300.611786 367.404327,298.444763 368.907806,295.987366 
	C371.242828,292.170959 372.778076,287.217743 372.803986,282.735779 
	C373.074554,235.912979 373.005524,189.087997 372.903107,142.263885 
	C372.897247,139.581314 372.057922,136.802536 371.133209,134.239304 
	C368.811279,127.803177 366.016144,126.305389 358.647186,127.044632 
	C354.603607,127.450279 349.618927,132.066589 349.143829,136.369537 
	C348.368134,143.394989 347.920837,150.456680 347.334503,158.501984 
z"/>
<path fill="#CD8F45" opacity="1.000000" stroke="none" 
	d="
M441.468658,345.000000 
	C442.409729,329.738068 443.787048,314.473022 445.239044,299.215118 
	C446.501801,285.945862 447.865540,272.686218 449.154297,259.419403 
	C450.523682,245.323090 451.853241,231.222931 453.208221,217.125229 
	C453.853790,210.408234 454.523773,203.693588 455.172668,196.976898 
	C456.518494,183.046036 457.848755,169.113663 459.203400,155.183640 
	C459.824341,148.798584 460.524017,142.421066 461.124634,136.034180 
	C462.528595,121.105667 463.817932,106.165787 465.335785,91.249046 
	C465.663574,88.027512 466.758392,84.884026 467.624756,81.169281 
	C496.861023,81.169281 526.578613,81.169281 556.933838,81.169281 
	C557.581482,85.753815 558.472595,90.551781 558.898865,95.390694 
	C559.812256,105.758286 560.427856,116.151764 561.278381,126.525368 
	C561.802551,132.919266 562.568542,139.292938 563.167603,145.681168 
	C564.567627,160.609924 565.914856,175.543640 567.319946,190.471893 
	C567.889893,196.527176 568.593506,202.569824 569.168762,208.624634 
	C570.555359,223.219589 571.892334,237.819244 573.269409,252.415085 
	C573.887695,258.967987 574.578064,265.514069 575.193909,272.067169 
	C576.581665,286.832123 577.826660,301.611664 579.357849,316.361603 
	C580.322205,325.651093 581.699097,334.897766 582.945435,344.581818 
	C566.645752,345.000000 550.291565,345.000000 533.261963,344.679504 
	C532.109192,342.993500 531.311951,341.652496 531.205078,340.258575 
	C530.374817,329.429565 529.539673,318.597015 529.019592,307.750488 
	C528.853638,304.289825 527.676453,303.155792 524.262512,303.242126 
	C516.468201,303.439178 508.664307,303.382782 500.866608,303.270264 
	C497.158081,303.216736 495.458252,304.803772 495.250000,308.495514 
	C494.563446,320.667267 493.759094,332.832367 493.000000,345.000000 
	C475.979095,345.000000 458.958221,345.000000 441.468658,345.000000 
M520.996399,221.457977 
	C520.361145,215.406754 519.571411,209.366974 519.122864,203.301941 
	C518.207336,190.923996 517.533997,178.528259 516.646545,166.148041 
	C516.104675,158.588409 515.462402,151.032013 514.655273,143.496643 
	C514.017883,137.545776 513.060181,131.629227 512.244751,125.697441 
	C511.837738,125.607658 511.430725,125.517876 511.023712,125.428093 
	C510.421173,127.432793 509.481873,129.403641 509.276337,131.448242 
	C508.517914,138.992630 507.931061,146.556519 507.411621,154.122147 
	C506.584381,166.170486 505.825317,178.223877 505.106537,190.279236 
	C504.308441,203.664627 503.587952,217.054642 502.832550,230.442581 
	C502.804413,230.941452 502.773315,231.440445 502.728943,231.938080 
	C501.882446,241.428329 501.033691,250.918396 500.164276,260.645203 
	C509.003845,260.645203 516.717285,260.645203 524.465820,260.645203 
	C523.287598,247.623123 522.147949,235.027130 520.996399,221.457977 
z"/>
<path fill="#CE9046" opacity="1.000000" stroke="none" 
	d="
M147.000000,345.000000 
	C98.376976,345.000000 49.753956,345.000000 1.000000,345.000000 
	C1.000000,231.312469 1.000000,117.624893 1.468533,3.456649 
	C50.313934,2.943866 98.690804,2.911748 147.067673,2.879630 
	C147.067673,2.879630 146.982559,2.960044 146.973175,3.479053 
	C146.975861,117.665375 146.987930,231.332687 147.000000,345.000000 
M108.486908,220.884964 
	C112.442482,220.884964 116.398056,220.884964 120.672791,220.884964 
	C120.672791,214.000504 120.672791,207.622589 120.672791,200.506256 
	C105.465401,200.506256 90.545761,200.506256 75.626114,200.506256 
	C75.601486,200.090134 75.576851,199.674026 75.552223,199.257904 
	C90.489159,196.215698 105.426094,193.173492 120.588348,190.085388 
	C120.588348,183.329391 120.588348,176.457947 120.588348,169.191086 
	C104.883575,169.191086 89.594887,169.191071 74.306198,169.191101 
	C57.322506,169.191147 40.338146,169.273819 23.355577,169.135773 
	C18.867025,169.099274 16.966398,170.872101 17.204639,175.314392 
	C17.364914,178.302917 17.508213,181.338272 17.169641,184.296646 
	C16.687340,188.510895 18.662909,189.360153 22.358088,189.294083 
	C31.845938,189.124466 41.338844,189.237671 50.829731,189.237808 
	C54.016590,189.237854 57.203445,189.237808 60.390305,189.237808 
	C60.413471,189.695755 60.436642,190.153702 60.459808,190.611649 
	C46.087475,193.520279 31.715141,196.428894 17.234962,199.359344 
	C17.234962,204.710739 17.222374,209.360443 17.238043,214.010040 
	C17.259224,220.295822 17.830925,220.880112 24.070332,220.881760 
	C51.876965,220.889114 79.683594,220.884857 108.486908,220.884964 
M44.512367,29.032829 
	C45.389771,27.981661 46.942890,26.979950 47.024094,25.870506 
	C47.327232,21.728809 47.156727,17.551779 47.147430,13.388041 
	C47.134163,7.446269 47.138538,7.495964 41.535725,8.688093 
	C40.087627,8.996210 38.419334,8.533775 37.078655,9.033216 
	C32.916538,10.583722 28.380545,11.757241 24.866158,14.292225 
	C17.028488,19.945663 16.411066,28.667835 17.125355,37.358982 
	C17.686810,44.190506 19.683739,50.725777 26.773823,53.651966 
	C30.881895,55.347435 35.421646,55.962948 39.670666,57.358231 
	C47.643421,59.976299 54.535030,56.960522 60.482189,52.498550 
	C66.991478,47.614830 73.044006,41.939873 78.505646,35.895905 
	C83.509476,30.358566 89.124100,28.037842 96.369469,28.661028 
	C99.486938,28.929169 102.912537,28.919647 102.746216,33.028828 
	C102.608025,36.442986 99.688797,37.210083 96.595451,37.153790 
	C92.173462,37.073322 87.748917,37.133301 82.873695,37.133301 
	C82.873695,43.910694 82.729515,49.890984 83.014549,55.850739 
	C83.062477,56.852810 85.014633,58.634998 86.004616,58.579819 
	C92.560623,58.214382 99.199310,57.964954 105.606308,56.666954 
	C112.415062,55.287556 117.778992,51.110744 120.195969,44.381695 
	C121.282089,41.357841 120.770218,37.798313 121.354057,34.548428 
	C122.978271,25.507462 120.729286,17.783941 113.019272,12.609848 
	C109.803909,10.452054 105.536995,9.825185 101.711266,8.619472 
	C88.911423,4.585478 77.379288,7.730046 67.412010,15.939175 
	C60.887520,21.312796 55.157719,27.698385 49.398232,33.932152 
	C46.852814,36.687180 44.005753,37.574005 40.624496,37.245033 
	C39.364346,37.122433 37.281868,36.287418 37.161640,35.526470 
	C36.913670,33.957016 37.207687,31.633747 38.247749,30.700293 
	C39.510994,29.566526 41.773758,29.546423 44.512367,29.032829 
M87.299217,84.766594 
	C90.471573,84.176743 93.628349,83.475159 96.820862,83.029785 
	C99.765312,82.619019 101.982101,83.845566 102.855095,86.782280 
	C103.840553,90.097336 101.219124,91.100441 98.977829,92.013870 
	C97.517731,92.608925 95.830925,92.820122 94.234634,92.873627 
	C90.621246,92.994713 87.001015,92.911713 83.215576,92.911713 
	C83.215576,99.872910 83.215576,106.239655 83.215576,113.881508 
	C91.658257,112.855972 99.705162,112.403130 107.495972,110.746178 
	C112.617294,109.656975 117.500931,106.218048 118.820000,100.957474 
	C120.427811,94.545349 120.315994,87.716888 121.174309,81.097862 
	C122.058311,74.280708 113.439766,65.930344 107.799850,65.072113 
	C101.019478,64.040337 94.160072,63.433361 87.312927,62.960491 
	C79.850761,62.445145 73.652092,65.578278 68.423836,70.638603 
	C62.443020,76.427322 56.835205,82.618233 50.646172,88.166847 
	C48.131992,90.420860 44.641312,91.837631 41.357529,92.904778 
	C38.521645,93.826378 36.795177,92.367310 36.700970,88.978966 
	C36.606182,85.569870 38.105618,84.569275 41.172901,84.779846 
	C42.933277,84.900681 44.708748,84.801735 46.800392,84.801735 
	C46.800392,77.221107 46.800392,70.339043 46.800392,62.168579 
	C40.560528,63.525753 34.803394,64.409943 29.279125,66.069336 
	C21.781599,68.321465 18.928732,75.037415 17.626366,81.645096 
	C16.007759,89.857277 16.072582,98.262962 22.389915,105.294868 
	C30.322451,114.124695 49.277103,115.920509 58.515171,108.675056 
	C65.771309,102.984016 72.148239,96.182465 79.067062,90.044823 
	C81.306114,88.058586 84.024879,86.613106 87.299217,84.766594 
M17.231901,126.603424 
	C17.231884,135.760452 17.218298,144.917511 17.236553,154.074493 
	C17.249002,160.318893 17.822794,160.883148 24.129681,160.884491 
	C54.597672,160.890991 85.065659,160.890854 115.533646,160.877975 
	C117.154015,160.877289 118.774315,160.739136 120.648743,160.653366 
	C120.648743,146.136261 120.648743,131.930435 120.648743,117.502754 
	C114.066299,117.502754 107.846336,117.502754 100.870178,117.502754 
	C100.870178,124.816879 100.870178,131.843689 100.870178,138.632980 
	C92.540344,138.632980 84.974518,138.632980 77.109688,138.632980 
	C77.109688,133.210175 77.022057,128.231796 77.142998,123.258484 
	C77.214035,120.337288 76.250389,118.986992 73.110573,119.202652 
	C69.796387,119.430290 66.450821,119.351021 63.125484,119.228630 
	C58.968735,119.075638 57.020523,120.818665 57.179790,125.104042 
	C57.349468,129.669632 57.217983,134.246399 57.217983,138.695526 
	C50.560608,138.695526 44.818237,138.695526 38.696602,138.695526 
	C38.696602,133.174622 38.872505,128.023010 38.576221,122.898727 
	C38.499596,121.573479 37.000465,119.278427 36.055668,119.226341 
	C29.972292,118.890968 23.861391,119.054878 17.232286,119.054878 
	C17.232286,121.732140 17.232286,123.685333 17.231901,126.603424 
M43.645603,322.727234 
	C39.997631,323.291931 38.461720,321.819092 38.675453,318.061768 
	C38.892586,314.244659 38.693211,310.405212 38.729206,306.576050 
	C38.763195,302.960785 37.285408,300.996094 33.405354,301.132935 
	C29.746881,301.261963 26.079063,301.220337 22.417641,301.144104 
	C18.900692,301.070892 17.222277,302.709106 17.238726,306.209991 
	C17.262972,311.371399 17.242924,316.532990 17.242582,321.694519 
	C17.242125,328.620544 17.242468,335.546570 17.242468,342.677490 
	C52.171707,342.677490 86.372757,342.677490 120.666298,342.677490 
	C120.666298,335.956757 120.666298,329.558777 120.666298,322.727539 
	C118.531258,322.727539 116.730659,322.727509 114.930061,322.727509 
	C103.774513,322.727509 92.618973,322.728699 81.463425,322.727112 
	C74.822464,322.726135 74.821144,322.724182 74.816566,315.839691 
	C74.813835,311.733276 74.816055,307.626862 74.816055,303.349854 
	C67.802757,303.349854 61.439190,303.349854 54.811554,303.349854 
	C54.811554,308.096344 54.669243,312.423492 54.852180,316.736816 
	C55.029812,320.925079 53.335648,322.960938 49.070122,322.739410 
	C47.575642,322.661835 46.073750,322.726929 43.645603,322.727234 
M17.251797,261.449432 
	C17.251797,264.400452 17.251797,267.351471 17.251797,270.693054 
	C24.138727,270.693054 30.493853,270.693054 37.375229,270.693054 
	C37.375229,266.764282 37.375229,263.181122 37.375229,259.034241 
	C65.431885,259.034241 92.972275,259.034241 120.678406,259.034241 
	C120.678406,252.057236 120.678406,245.669815 120.678406,238.825043 
	C118.567818,238.825043 116.772995,238.825027 114.978165,238.825027 
	C91.174149,238.824966 67.369598,238.742020 43.566559,238.894577 
	C38.785728,238.925217 36.874493,237.086853 37.205784,232.433395 
	C37.330097,230.687180 37.061481,228.912994 36.950790,226.733841 
	C31.652199,226.733841 26.847942,226.875626 22.056683,226.687103 
	C18.494349,226.546951 17.060617,227.651108 17.165354,231.503387 
	C17.427652,241.151031 17.252100,250.810593 17.251797,261.449432 
M81.499985,296.747070 
	C94.433067,296.747070 107.366150,296.747070 120.580139,296.747070 
	C120.580139,289.312042 120.580139,282.460297 120.580139,275.216827 
	C118.330421,275.216827 116.527786,275.216827 114.725143,275.216827 
	C95.914215,275.216827 77.103294,275.216766 58.292370,275.216858 
	C46.473118,275.216949 34.653503,275.269714 22.834814,275.188110 
	C18.864561,275.160736 17.022095,276.846710 17.175140,280.852539 
	C17.289454,283.844604 17.188780,286.844574 17.198856,289.840973 
	C17.219643,296.022400 17.910654,296.738220 24.067204,296.742401 
	C42.878120,296.755219 61.689045,296.746765 81.499985,296.747070 
z"/>
<path fill="#CD8F44" opacity="1.000000" stroke="none" 
	d="
M633.468628,345.000000 
	C629.206909,342.459351 625.421997,339.906311 621.619202,337.380371 
	C611.242310,330.487885 605.087341,320.573059 600.947937,309.076141 
	C596.897217,297.825745 596.814392,286.200714 596.852783,274.481232 
	C596.997131,230.493225 596.238403,186.483841 597.427002,142.525986 
	C597.967834,122.521255 603.832520,103.123772 620.979431,90.065842 
	C626.445496,85.903206 633.315857,83.248543 639.919556,81.015244 
	C645.881958,78.998825 652.365662,77.523239 658.605225,77.573486 
	C666.876404,77.640091 675.325012,78.666603 683.338928,80.696228 
	C690.242493,82.444664 697.165100,85.366699 703.147034,89.217857 
	C712.476074,95.223869 719.249146,103.548195 723.329651,114.375320 
	C727.068176,124.295227 727.198303,134.290421 727.222961,144.477905 
	C727.252441,156.641388 727.241699,168.805054 727.217163,180.968552 
	C727.213562,182.756317 727.037537,184.543716 726.927490,186.588776 
	C709.629150,186.588776 692.705078,186.588776 675.207520,186.588776 
	C675.094360,184.858643 674.885071,183.103104 674.880066,181.346970 
	C674.848511,170.349869 675.064758,159.347229 674.771362,148.357849 
	C674.636536,143.306671 673.786499,138.230423 672.791504,133.259491 
	C671.898315,128.797028 667.018921,126.569839 660.327087,127.012589 
	C655.582520,127.326492 651.415588,131.093613 651.018616,135.940948 
	C650.292480,144.807190 649.381958,153.692871 649.337646,162.574387 
	C649.152039,199.730652 649.177917,236.888733 649.341431,274.045197 
	C649.367981,280.086700 650.303650,286.148224 651.149231,292.153992 
	C651.747131,296.400970 658.082642,301.183289 662.359985,300.700531 
	C666.486572,300.234772 672.878601,296.547455 673.062012,291.010498 
	C673.631531,273.810699 674.266113,256.613098 674.855408,239.413940 
	C674.923096,237.437943 674.864563,235.457626 674.864563,233.057388 
	C676.602234,232.901703 678.021912,232.666534 679.442017,232.663910 
	C694.104858,232.636734 708.769043,232.751663 723.429932,232.577637 
	C727.369568,232.530884 728.985901,233.433548 728.906616,237.817322 
	C728.632385,252.975220 729.503235,268.184418 728.578369,283.290802 
	C727.758850,296.677765 726.660645,310.269073 719.247864,322.301208 
	C713.099731,332.280823 705.071899,339.759705 693.864502,343.588898 
	C693.616638,343.673553 693.479187,344.081482 693.145142,344.669312 
	C673.312439,345.000000 653.624878,345.000000 633.468628,345.000000 
z"/>
<path fill="#CD8E43" opacity="1.000000" stroke="none" 
	d="
M218.998474,299.206207 
	C219.374039,299.089294 219.749619,298.972382 220.792877,298.866638 
	C221.940231,298.159149 222.419861,297.440521 222.899506,296.721863 
	C222.905289,296.321442 222.911072,295.921051 223.381104,295.196777 
	C224.205490,294.179688 224.565659,293.486450 224.925842,292.793213 
	C224.914993,292.386047 224.904144,291.978851 225.383469,291.185791 
	C226.208054,287.410797 226.542465,284.021667 226.876892,280.632568 
	C226.876892,264.873596 226.876892,249.114594 226.876892,233.004730 
	C244.242477,233.004730 261.307343,233.004730 279.001160,233.004730 
	C279.001160,253.320862 279.001160,273.698456 278.548889,294.639099 
	C277.750000,297.853516 277.403351,300.504913 277.056702,303.156281 
	C277.036804,304.188263 277.016907,305.220215 276.549988,306.711609 
	C275.746368,308.477692 275.389679,309.784363 275.032990,311.091064 
	C275.043243,311.524902 275.053528,311.958710 274.611481,312.768341 
	C273.820312,313.908600 273.481445,314.673035 273.142578,315.437500 
	C273.174896,315.800171 273.207184,316.162872 272.745392,316.830444 
	C271.826691,318.408447 271.402069,319.681610 270.977478,320.954742 
	C270.977478,320.954742 271.008179,320.985474 270.641296,321.050751 
	C269.894684,321.876312 269.514984,322.636566 269.135284,323.396820 
	C269.143707,323.776672 269.152161,324.156555 268.684937,324.821411 
	C267.813934,325.751984 267.418610,326.397552 267.023315,327.043121 
	C267.023315,327.043121 266.995575,327.004700 266.683136,327.051544 
	C265.944733,327.781769 265.518738,328.465118 265.092743,329.148499 
	C265.092743,329.148499 265.051880,329.054230 264.705017,329.049561 
	C263.282684,330.426270 262.207245,331.807648 261.131805,333.189026 
	C261.131805,333.189026 261.090820,333.090271 260.791504,333.106720 
	C260.021454,333.793274 259.550690,334.463409 259.079895,335.133514 
	C259.079895,335.133514 259.046387,335.043182 258.755066,335.073395 
	C257.977234,335.738495 257.490723,336.373352 257.004211,337.008209 
	C257.004211,337.008209 257.000000,337.000000 256.700531,337.032776 
	C255.934448,337.636139 255.467819,338.206726 255.001205,338.777283 
	C254.637177,338.912476 254.273132,339.047668 253.268768,339.141724 
	C252.086060,339.700348 251.543686,340.300110 251.001312,340.899902 
	C250.656708,341.020386 250.312119,341.140900 249.340607,341.184937 
	C248.142883,341.701477 247.572098,342.294495 247.001312,342.887512 
	C246.626038,342.989838 246.250778,343.092163 245.232300,343.147583 
	C244.059402,343.733765 243.529709,344.366882 243.000000,345.000000 
	C224.645767,345.000000 206.291550,345.000000 187.407776,344.646973 
	C186.101639,343.910797 185.325043,343.527710 184.282013,343.214111 
	C183.676712,343.169464 183.337845,343.055328 182.931091,342.589783 
	C182.070145,341.878326 181.277084,341.518250 180.226349,341.240845 
	C179.645401,341.191833 179.322098,341.060150 178.940125,340.593201 
	C178.152679,339.874969 177.423904,339.491974 176.395782,339.140472 
	C175.730576,339.035431 175.364731,338.898926 174.946243,338.467773 
	C174.272934,337.777130 173.652252,337.381073 173.017349,336.994629 
	C173.003128,337.004211 173.012939,336.971802 172.962189,336.647308 
	C172.239899,335.902069 171.568359,335.481323 170.936356,335.039673 
	C170.975906,335.018738 170.942001,335.101562 170.917450,334.760559 
	C170.212296,333.977203 169.531723,333.534851 168.897522,333.073730 
	C168.943909,333.054993 168.906723,333.147888 168.903503,332.770996 
	C167.554947,331.291870 166.209595,330.189575 164.910400,329.066528 
	C164.956558,329.045746 164.915054,329.138092 164.903259,328.798523 
	C164.237915,327.985229 163.584381,327.511505 162.964050,327.022980 
	C162.997253,327.008148 162.960373,327.070831 162.937775,326.750580 
	C162.309143,325.954010 161.703094,325.477722 160.888275,324.749023 
	C160.096222,323.395813 159.512939,322.294952 158.922211,320.867523 
	C158.329666,320.027802 157.744583,319.514679 157.014130,318.744690 
	C156.875092,318.096893 156.881409,317.705963 156.894989,316.976166 
	C156.317093,316.091980 155.731964,315.546722 155.014984,314.728668 
	C154.892075,314.054230 154.901001,313.652588 154.912994,312.925049 
	C154.357285,312.066406 153.798538,311.533600 153.119629,310.656097 
	C152.953094,309.346283 152.906693,308.381195 152.897049,307.036865 
	C152.340164,305.772095 151.746506,304.886597 151.083618,303.767151 
	C151.014389,303.533264 150.962997,303.048096 151.014893,302.622986 
	C151.036575,300.486755 151.006378,298.775665 150.951385,296.750122 
	C150.346100,295.958557 149.765625,295.481445 149.134644,294.538025 
	C149.060303,243.871460 149.007828,193.671158 149.059052,143.470978 
	C149.063919,138.703949 149.718338,133.937592 150.071198,129.170914 
	C150.358093,128.947540 150.644989,128.724182 151.407959,128.159622 
	C152.234085,126.152237 152.584137,124.486038 152.934204,122.819847 
	C152.914352,122.406113 152.894485,121.992386 153.352707,121.206062 
	C154.185577,119.458618 154.540390,118.083755 154.895187,116.708900 
	C154.873978,116.316170 154.852768,115.923439 155.315521,115.190819 
	C156.194550,113.553032 156.589615,112.255135 156.984680,110.957245 
	C156.990204,110.509857 156.995697,110.062462 157.435089,109.247437 
	C158.237320,108.228355 158.605667,107.576904 158.974014,106.925453 
	C158.974014,106.925453 158.977509,106.451973 159.376770,106.166298 
	C160.192490,104.937859 160.608932,103.995087 161.025375,103.052322 
	C161.025375,103.052322 160.992264,103.013046 161.349686,102.956863 
	C162.111206,102.193291 162.515305,101.485893 162.919388,100.778496 
	C162.938049,100.358826 162.956696,99.939163 163.429962,99.207970 
	C164.278900,98.323486 164.673218,97.750526 165.067551,97.177567 
	C165.067551,97.177574 165.041824,97.063812 165.397964,96.998520 
	C166.182083,96.317955 166.610046,95.702682 167.038010,95.087402 
	C167.038010,95.087402 167.009781,95.018616 167.352783,94.974182 
	C168.141525,94.311707 168.587250,93.693665 169.032974,93.075623 
	C169.032974,93.075623 169.013901,93.006248 169.344055,92.973061 
	C170.115509,92.357574 170.556824,91.775284 170.998138,91.192986 
	C172.026932,90.428032 173.055725,89.663078 174.762604,88.900795 
	C175.968842,88.288010 176.496979,87.672554 177.025116,87.057098 
	C177.025116,87.057098 177.021545,86.993927 177.415863,87.003891 
	C178.874588,86.345108 179.938995,85.676361 181.003403,85.007614 
	C181.003403,85.007614 181.000610,84.999390 181.375610,85.001442 
	C182.833282,84.363335 183.915939,83.723175 184.998596,83.083023 
	C185.369980,82.982681 185.741348,82.882332 186.772751,82.865616 
	C188.288208,82.347198 189.143646,81.745148 189.999069,81.143089 
	C190.702362,81.036812 191.405640,80.930534 192.882019,80.900574 
	C195.436249,80.368401 197.217361,79.759911 198.998489,79.151428 
	C201.275314,79.003441 203.552155,78.855453 206.741699,78.834213 
	C212.195679,78.941147 216.736954,78.921318 221.278214,78.901505 
	C223.570480,78.937447 225.862762,78.973389 228.672775,79.461273 
	C230.608932,80.227798 232.027359,80.542374 233.445770,80.856956 
	C234.401291,80.881630 235.356812,80.906303 236.738968,81.392715 
	C238.496216,82.217064 239.826843,82.579689 241.157455,82.942314 
	C241.577499,82.934669 241.997543,82.927032 242.780365,83.376282 
	C243.908859,84.174362 244.674591,84.515556 245.440308,84.856743 
	C245.804947,84.828583 246.169571,84.800430 246.832550,85.267731 
	C247.897232,86.128136 248.663559,86.493073 249.429886,86.858009 
	C249.798462,86.836586 250.167023,86.815170 250.825256,87.275894 
	C251.815628,88.145706 252.516312,88.533394 253.217010,88.921074 
	C253.633698,88.934990 254.050400,88.948906 254.787094,89.412888 
	C255.708252,90.254982 256.309387,90.647003 256.910553,91.039024 
	C256.910553,91.039024 256.974762,91.004227 257.028198,91.356781 
	C257.739502,92.129509 258.397339,92.549683 259.055176,92.969864 
	C259.055176,92.969864 259.004761,93.001945 259.051422,93.308777 
	C259.772583,94.052994 260.447052,94.490364 261.121552,94.927742 
	C261.121552,94.927742 261.035522,94.965614 261.071899,95.263931 
	C261.779907,96.017105 262.451569,96.471962 263.123199,96.926811 
	C263.123199,96.926811 263.036255,96.963692 263.071655,97.260284 
	C263.769440,98.020172 264.431885,98.483475 265.094299,98.946770 
	C265.094299,98.946770 265.014984,98.980644 265.054810,99.272186 
	C265.724640,100.044861 266.354675,100.525993 266.984711,101.007126 
	C266.984711,101.007126 267.001221,101.000481 267.032227,101.310509 
	C267.636871,102.079948 268.210510,102.539360 268.784119,102.998772 
	C268.920959,103.358513 269.057770,103.718254 269.150024,104.722458 
	C269.722473,105.917778 270.339478,106.468636 270.956512,107.019493 
	C270.956512,107.019493 271.008240,107.015907 270.998383,107.403442 
	C271.639923,108.860275 272.291321,109.929581 272.942719,110.998878 
	C273.058044,111.338036 273.173370,111.677185 273.198181,112.635040 
	C273.685028,113.835442 274.262451,114.417145 274.839844,114.998848 
	C274.924866,115.421509 275.009918,115.844170 275.052338,116.963165 
	C275.605011,118.772552 276.200256,119.885597 276.795502,120.998642 
	C276.968353,122.589622 277.141205,124.180603 277.185181,126.643234 
	C277.647034,130.342819 278.237793,133.170746 278.828552,135.998688 
	C278.880157,152.025909 278.931793,168.053131 278.425262,184.538635 
	C260.912048,184.997940 243.956940,184.998962 227.001846,185.000000 
	C226.890198,172.090210 226.778549,159.180435 226.809418,145.351089 
	C226.340042,141.288300 225.728149,138.145065 225.116257,135.001831 
	C225.034012,134.602203 224.951767,134.202576 224.894531,133.171326 
	C224.344345,132.027100 223.769196,131.514526 223.194031,131.001938 
	C222.633743,130.396622 222.073456,129.791321 221.195480,128.675385 
	C220.197449,127.795914 219.517105,127.427063 218.836761,127.058220 
	C217.810257,127.028656 216.783768,126.999092 215.333176,126.619232 
	C214.592377,125.977554 214.275665,125.686180 213.958954,125.394806 
	C213.639496,125.870255 213.320038,126.345688 213.000580,126.821121 
	C211.939545,126.902039 210.878540,126.982964 209.034729,127.032608 
	C207.196320,127.715721 206.140717,128.430115 205.085114,129.144516 
	C205.085114,129.144516 205.053925,129.055389 204.732758,129.095139 
	C203.986755,129.891907 203.561935,130.648926 203.137115,131.405945 
	C203.158646,131.775757 203.180176,132.145569 202.691528,132.841553 
	C201.832367,134.578888 201.483398,135.990067 201.134415,137.401230 
	C201.109177,183.538589 201.079239,229.675964 201.067001,275.813324 
	C201.065948,279.810333 201.181671,283.807312 201.142914,288.644318 
	C201.643677,290.655548 202.244675,291.826782 202.845673,292.998016 
	C202.943298,293.385590 203.040924,293.773193 203.117752,294.805847 
	C203.724258,295.970581 204.351547,296.490173 204.978836,297.009796 
	C204.978836,297.009796 205.001801,297.000122 205.042282,297.331909 
	C205.732834,298.103271 206.382919,298.542847 207.033005,298.982422 
	C207.033005,298.982422 207.003082,299.003845 207.075043,299.360962 
	C208.522415,300.112640 209.897827,300.507202 211.273239,300.901764 
	C212.801620,300.843079 214.330017,300.784424 216.578156,300.814331 
	C217.864777,300.337311 218.431625,299.771759 218.998474,299.206207 
z"/>
<path fill="#FDFAF7" opacity="1.000000" stroke="none" 
	d="
M799.468628,345.000000 
	C799.034851,307.229858 799.156128,269.459381 798.998596,231.690048 
	C798.978210,226.794952 800.014709,224.659409 805.294800,225.230423 
	C809.571045,225.692871 813.937195,225.322113 818.263428,225.324753 
	C824.875305,225.328796 824.883362,225.330200 824.883972,231.750595 
	C824.886902,265.195801 824.884644,298.640991 824.886353,332.086182 
	C824.886597,336.079590 824.900452,340.072968 824.953979,344.533203 
	C816.645752,345.000000 808.291504,345.000000 799.468628,345.000000 
z"/>
<path fill="#FDFBF8" opacity="1.000000" stroke="none" 
	d="
M493.468628,345.000000 
	C493.759094,332.832367 494.563446,320.667267 495.250000,308.495514 
	C495.458252,304.803772 497.158081,303.216736 500.866608,303.270264 
	C508.664307,303.382782 516.468201,303.439178 524.262512,303.242126 
	C527.676453,303.155792 528.853638,304.289825 529.019592,307.750488 
	C529.539673,318.597015 530.374817,329.429565 531.205078,340.258575 
	C531.311951,341.652496 532.109192,342.993500 532.793335,344.679504 
	C519.979126,345.000000 506.958221,345.000000 493.468628,345.000000 
z"/>
<path fill="#DFB783" opacity="1.000000" stroke="none" 
	d="
M150.976196,297.064545 
	C151.006378,298.775665 151.036575,300.486755 150.594330,302.622803 
	C149.725754,304.376556 148.992752,305.703674 148.985840,307.034546 
	C148.920212,319.689331 148.977829,332.344757 149.000000,345.000000 
	C148.555557,345.000000 148.111099,345.000000 147.333328,345.000000 
	C146.987930,231.332687 146.975861,117.665375 146.955658,3.534923 
	C147.612579,4.630637 148.852173,6.187393 148.857864,7.748651 
	C148.971512,38.901043 148.910385,70.054008 148.962769,101.206734 
	C148.978134,110.347404 149.233917,119.487686 149.725357,128.899536 
	C149.718338,133.937592 149.063919,138.703949 149.059052,143.470978 
	C149.007828,193.671158 149.060303,243.871460 149.126770,294.855743 
	C149.771637,296.114685 150.373917,296.589630 150.976196,297.064545 
z"/>
<path fill="#FDFBF8" opacity="1.000000" stroke="none" 
	d="
M149.468658,345.000000 
	C148.977829,332.344757 148.920212,319.689331 148.985840,307.034546 
	C148.992752,305.703674 149.725754,304.376556 150.542435,303.047913 
	C150.962997,303.048096 151.014389,303.533264 151.038101,304.131775 
	C151.661301,305.625519 152.260803,306.520813 152.860291,307.416077 
	C152.906693,308.381195 152.953094,309.346283 153.097336,310.985046 
	C153.766769,312.189423 154.338348,312.720154 154.909943,313.250916 
	C154.901001,313.652588 154.892075,314.054230 154.996094,315.071381 
	C155.701950,316.229584 156.294846,316.772339 156.887741,317.315063 
	C156.881409,317.705963 156.875092,318.096893 157.002533,319.078552 
	C157.734100,320.177551 158.331879,320.685852 158.929657,321.194122 
	C159.512939,322.294952 160.096222,323.395813 160.895905,325.080688 
	C161.728317,326.133423 162.344345,326.602142 162.960373,327.070831 
	C162.960373,327.070831 162.997253,327.008148 162.997971,327.362427 
	C163.637482,328.190521 164.276260,328.664307 164.915054,329.138092 
	C164.915054,329.138092 164.956558,329.045746 164.942062,329.418823 
	C166.253952,330.910553 167.580338,332.029205 168.906723,333.147888 
	C168.906723,333.147888 168.943909,333.054993 168.934097,333.415344 
	C169.596863,334.217682 170.269424,334.659637 170.941986,335.101562 
	C170.942001,335.101562 170.975906,335.018738 170.987366,335.372650 
	C171.670212,336.141663 172.341568,336.556732 173.012939,336.971802 
	C173.012939,336.971802 173.003128,337.004211 173.088959,337.300354 
	C173.782822,337.985138 174.390839,338.373779 174.998871,338.762421 
	C175.364731,338.898926 175.730576,339.035431 176.469681,339.478821 
	C177.561569,340.166626 178.280182,340.547546 178.998795,340.928467 
	C179.322098,341.060150 179.645401,341.191833 180.307083,341.595581 
	C181.429977,342.225494 182.214478,342.583344 182.998978,342.941162 
	C183.337845,343.055328 183.676712,343.169464 184.337189,343.529449 
	C184.772537,344.183533 184.886261,344.591766 185.000000,345.000000 
	C173.312439,345.000000 161.624878,345.000000 149.468658,345.000000 
z"/>
<path fill="#F4E7D6" opacity="1.000000" stroke="none" 
	d="
M147.061310,2.566230 
	C98.690804,2.911748 50.313934,2.943866 1.468533,2.987992 
	C1.330368,2.333333 1.541713,1.216000 2.015131,1.090967 
	C3.102492,0.803788 4.317521,1.000000 5.480729,1.000000 
	C52.341381,1.000000 99.202034,1.000000 146.531342,1.000000 
	C147.018326,1.417610 147.036652,1.835220 147.061310,2.566230 
z"/>
<path fill="#CD8F45" opacity="1.000000" stroke="none" 
	d="
M243.333344,345.000000 
	C243.529709,344.366882 244.059402,343.733765 244.938934,343.100891 
	C245.225540,343.522980 245.162338,343.944824 245.049561,344.683350 
	C244.555557,345.000000 244.111099,345.000000 243.333344,345.000000 
z"/>
<path fill="#CD8F45" opacity="1.000000" stroke="none" 
	d="
M185.333328,345.000000 
	C184.886261,344.591766 184.772537,344.183533 184.603622,343.459961 
	C185.325043,343.527710 186.101639,343.910797 186.939117,344.646973 
	C186.555557,345.000000 186.111099,345.000000 185.333328,345.000000 
z"/>
<path fill="#CD8F45" opacity="1.000000" stroke="none" 
	d="
M227.020508,185.420715 
	C243.956940,184.998962 260.912048,184.997940 278.319519,184.996307 
	C278.245850,185.612244 277.722046,186.765213 277.193420,186.767395 
	C260.812714,186.835327 244.431488,186.796310 228.050568,186.725143 
	C227.712158,186.723679 227.376251,186.148804 227.020508,185.420715 
z"/>
<path fill="#CD8F45" opacity="1.000000" stroke="none" 
	d="
M221.087036,78.549606 
	C216.736954,78.921318 212.195679,78.941147 207.158234,78.922737 
	C211.406647,78.655571 216.151260,78.426636 221.087036,78.549606 
z"/>
<path fill="#CD8F45" opacity="1.000000" stroke="none" 
	d="
M225.073547,135.447601 
	C225.728149,138.145065 226.340042,141.288300 226.910889,144.916656 
	C226.256836,142.232315 225.643845,139.062836 225.073547,135.447601 
z"/>
<path fill="#CD8F45" opacity="1.000000" stroke="none" 
	d="
M226.527237,280.829224 
	C226.542465,284.021667 226.208054,287.410797 225.491516,290.898804 
	C225.465454,287.673767 225.821518,284.349823 226.527237,280.829224 
z"/>
<path fill="#CD8F45" opacity="1.000000" stroke="none" 
	d="
M278.892639,135.559845 
	C278.237793,133.170746 277.647034,130.342819 277.097961,127.034592 
	C277.745331,129.409866 278.351044,132.265427 278.892639,135.559845 
z"/>
<path fill="#CD8F45" opacity="1.000000" stroke="none" 
	d="
M277.405884,302.991638 
	C277.403351,300.504913 277.750000,297.853516 278.469543,295.102051 
	C278.479950,297.610321 278.117523,300.218628 277.405884,302.991638 
z"/>
<path fill="#CD8F45" opacity="1.000000" stroke="none" 
	d="
M198.596558,79.095978 
	C197.217361,79.759911 195.436249,80.368401 193.235199,80.954872 
	C194.608383,80.302078 196.401520,79.671303 198.596558,79.095978 
z"/>
<path fill="#CD8F45" opacity="1.000000" stroke="none" 
	d="
M261.485229,333.162323 
	C262.207245,331.807648 263.282684,330.426270 264.752136,329.070038 
	C264.043640,330.441986 262.941162,331.788788 261.485229,333.162323 
z"/>
<path fill="#CD8F45" opacity="1.000000" stroke="none" 
	d="
M152.585602,122.957153 
	C152.584137,124.486038 152.234085,126.152237 151.522095,127.908333 
	C151.519104,126.363647 151.878052,124.729050 152.585602,122.957153 
z"/>
<path fill="#CD8F45" opacity="1.000000" stroke="none" 
	d="
M276.843567,120.635689 
	C276.200256,119.885597 275.605011,118.772552 275.019897,117.288239 
	C275.650574,118.035561 276.271088,119.154152 276.843567,120.635689 
z"/>
<path fill="#CD8F45" opacity="1.000000" stroke="none" 
	d="
M156.651291,111.082344 
	C156.589615,112.255135 156.194550,113.553032 155.447815,114.924545 
	C155.503403,113.734581 155.910660,112.471016 156.651291,111.082344 
z"/>
<path fill="#CD8F45" opacity="1.000000" stroke="none" 
	d="
M241.039810,82.596069 
	C239.826843,82.579689 238.496216,82.217064 237.083862,81.501656 
	C238.308792,81.515854 239.615479,81.882843 241.039810,82.596069 
z"/>
<path fill="#CD8F45" opacity="1.000000" stroke="none" 
	d="
M184.635315,83.051262 
	C183.915939,83.723175 182.833282,84.363335 181.380127,85.004234 
	C182.097092,84.343155 183.184570,83.681328 184.635315,83.051262 
z"/>
<path fill="#CD8F45" opacity="1.000000" stroke="none" 
	d="
M205.442413,129.119797 
	C206.140717,128.430115 207.196320,127.715721 208.635880,127.004189 
	C207.946457,127.703064 206.873093,128.399063 205.442413,129.119797 
z"/>
<path fill="#CD8F45" opacity="1.000000" stroke="none" 
	d="
M271.306610,320.831604 
	C271.402069,319.681610 271.826691,318.408447 272.602905,317.068176 
	C272.514923,318.236816 272.075348,319.472626 271.306610,320.831604 
z"/>
<path fill="#CD8F45" opacity="1.000000" stroke="none" 
	d="
M180.638580,84.992393 
	C179.938995,85.676361 178.874588,86.345108 177.440475,87.023766 
	C178.138428,86.348175 179.206085,85.662674 180.638580,84.992393 
z"/>
<path fill="#CD8F45" opacity="1.000000" stroke="none" 
	d="
M201.490509,137.268463 
	C201.483398,135.990067 201.832367,134.578888 202.551117,133.084747 
	C202.562805,134.379745 202.204712,135.757721 201.490509,137.268463 
z"/>
<path fill="#CD8F45" opacity="1.000000" stroke="none" 
	d="
M154.539185,116.827957 
	C154.540390,118.083755 154.185577,119.458618 153.467972,120.915779 
	C153.464508,119.647728 153.823837,118.297363 154.539185,116.827957 
z"/>
<path fill="#CD8F45" opacity="1.000000" stroke="none" 
	d="
M233.308960,80.499435 
	C232.027359,80.542374 230.608932,80.227798 229.096268,79.551277 
	C230.392059,79.506859 231.782120,79.824387 233.308960,80.499435 
z"/>
<path fill="#CD8F45" opacity="1.000000" stroke="none" 
	d="
M272.964478,110.635239 
	C272.291321,109.929581 271.639923,108.860275 270.980988,107.422699 
	C271.644379,108.126816 272.315277,109.199203 272.964478,110.635239 
z"/>
<path fill="#CD8F45" opacity="1.000000" stroke="none" 
	d="
M202.879501,292.624939 
	C202.244675,291.826782 201.643677,290.655548 201.075241,289.090332 
	C201.709641,289.881531 202.311493,291.066711 202.879501,292.624939 
z"/>
<path fill="#CD8F45" opacity="1.000000" stroke="none" 
	d="
M275.361389,310.957153 
	C275.389679,309.784363 275.746368,308.477692 276.447388,307.086609 
	C276.424438,308.275879 276.057129,309.549561 275.361389,310.957153 
z"/>
<path fill="#CD8F45" opacity="1.000000" stroke="none" 
	d="
M211.133652,300.563995 
	C209.897827,300.507202 208.522415,300.112640 207.081085,299.343811 
	C208.341461,299.388428 209.667770,299.807312 211.133652,300.563995 
z"/>
<path fill="#CD8F45" opacity="1.000000" stroke="none" 
	d="
M189.639709,81.100021 
	C189.143646,81.745148 188.288208,82.347198 187.061798,82.919167 
	C187.554001,82.278366 188.417175,81.667656 189.639709,81.100021 
z"/>
<path fill="#CD8F45" opacity="1.000000" stroke="none" 
	d="
M160.703735,103.150162 
	C160.608932,103.995087 160.192490,104.937859 159.445404,105.939713 
	C159.537186,105.081863 159.959641,104.164932 160.703735,103.150162 
z"/>
<path fill="#CD8F45" opacity="1.000000" stroke="none" 
	d="
M267.338440,326.974487 
	C267.418610,326.397552 267.813934,325.751984 268.514557,325.054199 
	C268.431091,325.636627 268.042328,326.271240 267.338440,326.974487 
z"/>
<path fill="#CD8F45" opacity="1.000000" stroke="none" 
	d="
M255.317413,338.776550 
	C255.467819,338.206726 255.934448,337.636139 256.705139,337.035217 
	C256.550659,337.595184 256.092133,338.185486 255.317413,338.776550 
z"/>
<path fill="#CD8F45" opacity="1.000000" stroke="none" 
	d="
M257.345978,336.989136 
	C257.490723,336.373352 257.977234,335.738495 258.799194,335.092712 
	C258.652344,335.711273 258.170044,336.340668 257.345978,336.989136 
z"/>
<path fill="#CD8F45" opacity="1.000000" stroke="none" 
	d="
M259.425659,335.104889 
	C259.550690,334.463409 260.021454,333.793274 260.841980,333.124451 
	C260.718262,333.775909 260.244812,334.426086 259.425659,335.104889 
z"/>
<path fill="#CD8F45" opacity="1.000000" stroke="none" 
	d="
M265.433441,329.107910 
	C265.518738,328.465118 265.944733,327.781769 266.705353,327.059509 
	C266.618042,327.702881 266.196106,328.385101 265.433441,329.107910 
z"/>
<path fill="#CD8F45" opacity="1.000000" stroke="none" 
	d="
M273.482819,315.351013 
	C273.481445,314.673035 273.820312,313.908600 274.493652,313.072937 
	C274.493073,313.756042 274.158081,314.510284 273.482819,315.351013 
z"/>
<path fill="#CD8F45" opacity="1.000000" stroke="none" 
	d="
M269.485901,323.323975 
	C269.514984,322.636566 269.894684,321.876312 270.619690,321.050110 
	C270.588806,321.739838 270.212646,322.495483 269.485901,323.323975 
z"/>
<path fill="#CD8F45" opacity="1.000000" stroke="none" 
	d="
M251.347504,340.910645 
	C251.543686,340.300110 252.086060,339.700348 252.971344,339.106110 
	C252.774078,339.714874 252.233887,340.318146 251.347504,340.910645 
z"/>
<path fill="#CD8F45" opacity="1.000000" stroke="none" 
	d="
M247.354248,342.909729 
	C247.572098,342.294495 248.142883,341.701477 249.066010,341.123718 
	C248.847961,341.736664 248.277573,342.334290 247.354248,342.909729 
z"/>
<path fill="#CD8F45" opacity="1.000000" stroke="none" 
	d="
M162.582092,100.849052 
	C162.515305,101.485893 162.111206,102.193291 161.375168,102.959991 
	C161.443756,102.319397 161.844284,101.619499 162.582092,100.849052 
z"/>
<path fill="#CD8F45" opacity="1.000000" stroke="none" 
	d="
M245.354980,84.515121 
	C244.674591,84.515556 243.908859,84.174362 243.072464,83.497498 
	C243.757736,83.499054 244.513702,83.836273 245.354980,84.515121 
z"/>
<path fill="#CD8F45" opacity="1.000000" stroke="none" 
	d="
M249.352249,86.510147 
	C248.663559,86.493073 247.897232,86.128136 247.066193,85.419563 
	C247.759186,85.438049 248.516891,85.800171 249.352249,86.510147 
z"/>
<path fill="#CD8F45" opacity="1.000000" stroke="none" 
	d="
M176.680328,87.063995 
	C176.496979,87.672554 175.968842,88.288010 175.100861,88.908508 
	C175.285873,88.299339 175.810715,87.685120 176.680328,87.063995 
z"/>
<path fill="#CD8F45" opacity="1.000000" stroke="none" 
	d="
M253.144226,88.589088 
	C252.516312,88.533394 251.815628,88.145706 251.058319,87.432739 
	C251.691605,87.490669 252.381516,87.873886 253.144226,88.589088 
z"/>
<path fill="#CD8F45" opacity="1.000000" stroke="none" 
	d="
M256.834778,90.743011 
	C256.309387,90.647003 255.708252,90.254982 255.053955,89.577972 
	C255.586853,89.677650 256.172913,90.062325 256.834778,90.743011 
z"/>
<path fill="#CD8F45" opacity="1.000000" stroke="none" 
	d="
M170.684540,91.211510 
	C170.556824,91.775284 170.115509,92.357574 169.377045,92.987366 
	C169.510254,92.433250 169.940598,91.831642 170.684540,91.211510 
z"/>
<path fill="#CD8F45" opacity="1.000000" stroke="none" 
	d="
M258.995911,92.642746 
	C258.397339,92.549683 257.739502,92.129509 257.024414,91.393089 
	C257.623627,91.489777 258.280121,91.902702 258.995911,92.642746 
z"/>
<path fill="#CD8F45" opacity="1.000000" stroke="none" 
	d="
M168.707993,93.114792 
	C168.587250,93.693665 168.141525,94.311707 167.389008,94.982559 
	C167.515823,94.408241 167.949417,93.781105 168.707993,93.114792 
z"/>
<path fill="#CD8F45" opacity="1.000000" stroke="none" 
	d="
M261.081787,94.588593 
	C260.447052,94.490364 259.772583,94.052994 259.063110,93.281296 
	C259.699432,93.381134 260.370728,93.815285 261.081787,94.588593 
z"/>
<path fill="#CD8F45" opacity="1.000000" stroke="none" 
	d="
M166.724640,95.147842 
	C166.610046,95.702682 166.182083,96.317955 165.456238,96.996605 
	C165.576004,96.442749 165.993637,95.825516 166.724640,95.147842 
z"/>
<path fill="#CD8F45" opacity="1.000000" stroke="none" 
	d="
M263.086273,96.585693 
	C262.451569,96.471962 261.779907,96.017105 261.089691,95.220428 
	C261.730530,95.333939 262.389923,95.789261 263.086273,96.585693 
z"/>
<path fill="#CD8F45" opacity="1.000000" stroke="none" 
	d="
M164.780334,97.248573 
	C164.673218,97.750526 164.278900,98.323486 163.610260,98.948151 
	C163.721680,98.439766 164.107407,97.879677 164.780334,97.248573 
z"/>
<path fill="#CD8F45" opacity="1.000000" stroke="none" 
	d="
M265.062439,98.605225 
	C264.431885,98.483475 263.769440,98.020172 263.089966,97.216766 
	C263.725464,97.338997 264.378052,97.801346 265.062439,98.605225 
z"/>
<path fill="#CD8F45" opacity="1.000000" stroke="none" 
	d="
M266.958191,100.670349 
	C266.354675,100.525993 265.724640,100.044861 265.074707,99.233940 
	C265.680450,99.380623 266.306030,99.857101 266.958191,100.670349 
z"/>
<path fill="#CD8F45" opacity="1.000000" stroke="none" 
	d="
M218.661743,299.193359 
	C218.431625,299.771759 217.864777,300.337311 216.954407,300.886597 
	C217.182251,300.307037 217.753632,299.743774 218.661743,299.193359 
z"/>
<path fill="#CD8F45" opacity="1.000000" stroke="none" 
	d="
M268.782501,102.681976 
	C268.210510,102.539360 267.636871,102.079948 267.027588,101.318687 
	C267.588226,101.466286 268.184540,101.915733 268.782501,102.681976 
z"/>
<path fill="#CD8F45" opacity="1.000000" stroke="none" 
	d="
M270.953430,106.668175 
	C270.339478,106.468636 269.722473,105.917778 269.111267,105.017075 
	C269.728180,105.217110 270.339264,105.766983 270.953430,106.668175 
z"/>
<path fill="#CD8F45" opacity="1.000000" stroke="none" 
	d="
M158.672318,107.018417 
	C158.605667,107.576904 158.237320,108.228355 157.570068,108.939438 
	C157.637650,108.369850 158.004135,107.740623 158.672318,107.018417 
z"/>
<path fill="#CD8F45" opacity="1.000000" stroke="none" 
	d="
M274.871582,114.647247 
	C274.262451,114.417145 273.685028,113.835442 273.126282,112.901642 
	C273.731049,113.131592 274.317200,113.713615 274.871582,114.647247 
z"/>
<path fill="#CD8F45" opacity="1.000000" stroke="none" 
	d="
M213.331604,126.883484 
	C213.320038,126.345688 213.639496,125.870255 213.958954,125.394806 
	C214.275665,125.686180 214.592377,125.977554 214.954041,126.547035 
	C214.553543,126.865372 214.108078,126.905602 213.331604,126.883484 
z"/>
<path fill="#CD8F45" opacity="1.000000" stroke="none" 
	d="
M218.933380,127.363228 
	C219.517105,127.427063 220.197449,127.795914 220.937592,128.475220 
	C220.341599,128.413208 219.685806,128.040726 218.933380,127.363228 
z"/>
<path fill="#CD8F45" opacity="1.000000" stroke="none" 
	d="
M203.486420,131.337784 
	C203.561935,130.648926 203.986755,129.891907 204.777405,129.110413 
	C204.707413,129.813843 204.271576,130.541733 203.486420,131.337784 
z"/>
<path fill="#CD8F45" opacity="1.000000" stroke="none" 
	d="
M223.197540,131.326294 
	C223.769196,131.514526 224.344345,132.027100 224.926270,132.863754 
	C224.355698,132.675446 223.778381,132.163055 223.197540,131.326294 
z"/>
<path fill="#CD8F45" opacity="1.000000" stroke="none" 
	d="
M224.612335,292.883972 
	C224.565659,293.486450 224.205490,294.179688 223.531921,294.935547 
	C223.578613,294.323669 223.938721,293.649200 224.612335,292.883972 
z"/>
<path fill="#CD8F45" opacity="1.000000" stroke="none" 
	d="
M204.943207,296.672455 
	C204.351547,296.490173 203.724258,295.970581 203.090347,295.108704 
	C203.691681,295.289368 204.299622,295.812225 204.943207,296.672455 
z"/>
<path fill="#CD8F45" opacity="1.000000" stroke="none" 
	d="
M206.960297,298.665558 
	C206.382919,298.542847 205.732834,298.103271 205.036148,297.343018 
	C205.622223,297.464447 206.254913,297.906586 206.960297,298.665558 
z"/>
<path fill="#CD8F45" opacity="1.000000" stroke="none" 
	d="
M222.551971,296.785278 
	C222.419861,297.440521 221.940231,298.159149 221.092987,298.889587 
	C221.218414,298.217163 221.711426,297.532928 222.551971,296.785278 
z"/>
<path fill="#FDFBF8" opacity="1.000000" stroke="none" 
	d="
M347.334747,158.002533 
	C347.920837,150.456680 348.368134,143.394989 349.143829,136.369537 
	C349.618927,132.066589 354.603607,127.450279 358.647186,127.044632 
	C366.016144,126.305389 368.811279,127.803177 371.133209,134.239304 
	C372.057922,136.802536 372.897247,139.581314 372.903107,142.263885 
	C373.005524,189.087997 373.074554,235.912979 372.803986,282.735779 
	C372.778076,287.217743 371.242828,292.170959 368.907806,295.987366 
	C367.404327,298.444763 363.045502,300.611786 360.169250,300.381042 
	C357.013855,300.127960 352.478577,297.620514 351.399689,294.944336 
	C349.076141,289.180725 347.558838,282.688049 347.506714,276.478638 
	C347.176544,237.155380 347.336365,197.828003 347.334747,158.002533 
z"/>
<path fill="#FDFBF8" opacity="1.000000" stroke="none" 
	d="
M521.002319,221.944550 
	C522.147949,235.027130 523.287598,247.623123 524.465820,260.645203 
	C516.717285,260.645203 509.003845,260.645203 500.164276,260.645203 
	C501.033691,250.918396 501.882446,241.428329 502.728943,231.938080 
	C502.773315,231.440445 502.804413,230.941452 502.832550,230.442581 
	C503.587952,217.054642 504.308441,203.664627 505.106537,190.279236 
	C505.825317,178.223877 506.584381,166.170486 507.411621,154.122147 
	C507.931061,146.556519 508.517914,138.992630 509.276337,131.448242 
	C509.481873,129.403641 510.421173,127.432793 511.023712,125.428093 
	C511.430725,125.517876 511.837738,125.607658 512.244751,125.697441 
	C513.060181,131.629227 514.017883,137.545776 514.655273,143.496643 
	C515.462402,151.032013 516.104675,158.588409 516.646545,166.148041 
	C517.533997,178.528259 518.207336,190.923996 519.122864,203.301941 
	C519.571411,209.366974 520.361145,215.406754 521.002319,221.944550 
z"/>
<path fill="#F6ECDF" opacity="1.000000" stroke="none" 
	d="
M107.988571,220.884888 
	C79.683594,220.884857 51.876965,220.889114 24.070332,220.881760 
	C17.830925,220.880112 17.259224,220.295822 17.238043,214.010040 
	C17.222374,209.360443 17.234962,204.710739 17.234962,199.359344 
	C31.715141,196.428894 46.087475,193.520279 60.459808,190.611649 
	C60.436642,190.153702 60.413471,189.695755 60.390305,189.237808 
	C57.203445,189.237808 54.016590,189.237854 50.829731,189.237808 
	C41.338844,189.237671 31.845938,189.124466 22.358088,189.294083 
	C18.662909,189.360153 16.687340,188.510895 17.169641,184.296646 
	C17.508213,181.338272 17.364914,178.302917 17.204639,175.314392 
	C16.966398,170.872101 18.867025,169.099274 23.355577,169.135773 
	C40.338146,169.273819 57.322506,169.191147 74.306198,169.191101 
	C89.594887,169.191071 104.883575,169.191086 120.588348,169.191086 
	C120.588348,176.457947 120.588348,183.329391 120.588348,190.085388 
	C105.426094,193.173492 90.489159,196.215698 75.552223,199.257904 
	C75.576851,199.674026 75.601486,200.090134 75.626114,200.506256 
	C90.545761,200.506256 105.465401,200.506256 120.672791,200.506256 
	C120.672791,207.622589 120.672791,214.000504 120.672791,220.884964 
	C116.398056,220.884964 112.442482,220.884964 107.988571,220.884888 
z"/>
<path fill="#F7EDE0" opacity="1.000000" stroke="none" 
	d="
M44.058231,29.038671 
	C41.773758,29.546423 39.510994,29.566526 38.247749,30.700293 
	C37.207687,31.633747 36.913670,33.957016 37.161640,35.526470 
	C37.281868,36.287418 39.364346,37.122433 40.624496,37.245033 
	C44.005753,37.574005 46.852814,36.687180 49.398232,33.932152 
	C55.157719,27.698385 60.887520,21.312796 67.412010,15.939175 
	C77.379288,7.730046 88.911423,4.585478 101.711266,8.619472 
	C105.536995,9.825185 109.803909,10.452054 113.019272,12.609848 
	C120.729286,17.783941 122.978271,25.507462 121.354057,34.548428 
	C120.770218,37.798313 121.282089,41.357841 120.195969,44.381695 
	C117.778992,51.110744 112.415062,55.287556 105.606308,56.666954 
	C99.199310,57.964954 92.560623,58.214382 86.004616,58.579819 
	C85.014633,58.634998 83.062477,56.852810 83.014549,55.850739 
	C82.729515,49.890984 82.873695,43.910694 82.873695,37.133301 
	C87.748917,37.133301 92.173462,37.073322 96.595451,37.153790 
	C99.688797,37.210083 102.608025,36.442986 102.746216,33.028828 
	C102.912537,28.919647 99.486938,28.929169 96.369469,28.661028 
	C89.124100,28.037842 83.509476,30.358566 78.505646,35.895905 
	C73.044006,41.939873 66.991478,47.614830 60.482189,52.498550 
	C54.535030,56.960522 47.643421,59.976299 39.670666,57.358231 
	C35.421646,55.962948 30.881895,55.347435 26.773823,53.651966 
	C19.683739,50.725777 17.686810,44.190506 17.125355,37.358982 
	C16.411066,28.667835 17.028488,19.945663 24.866158,14.292225 
	C28.380545,11.757241 32.916538,10.583722 37.078655,9.033216 
	C38.419334,8.533775 40.087627,8.996210 41.535725,8.688093 
	C47.138538,7.495964 47.134163,7.446269 47.147430,13.388041 
	C47.156727,17.551779 47.327232,21.728809 47.024094,25.870506 
	C46.942890,26.979950 45.389771,27.981661 44.058231,29.038671 
z"/>
<path fill="#F7EEE2" opacity="1.000000" stroke="none" 
	d="
M86.911713,84.843430 
	C84.024879,86.613106 81.306114,88.058586 79.067062,90.044823 
	C72.148239,96.182465 65.771309,102.984016 58.515171,108.675056 
	C49.277103,115.920509 30.322451,114.124695 22.389915,105.294868 
	C16.072582,98.262962 16.007759,89.857277 17.626366,81.645096 
	C18.928732,75.037415 21.781599,68.321465 29.279125,66.069336 
	C34.803394,64.409943 40.560528,63.525753 46.800392,62.168579 
	C46.800392,70.339043 46.800392,77.221107 46.800392,84.801735 
	C44.708748,84.801735 42.933277,84.900681 41.172901,84.779846 
	C38.105618,84.569275 36.606182,85.569870 36.700970,88.978966 
	C36.795177,92.367310 38.521645,93.826378 41.357529,92.904778 
	C44.641312,91.837631 48.131992,90.420860 50.646172,88.166847 
	C56.835205,82.618233 62.443020,76.427322 68.423836,70.638603 
	C73.652092,65.578278 79.850761,62.445145 87.312927,62.960491 
	C94.160072,63.433361 101.019478,64.040337 107.799850,65.072113 
	C113.439766,65.930344 122.058311,74.280708 121.174309,81.097862 
	C120.315994,87.716888 120.427811,94.545349 118.820000,100.957474 
	C117.500931,106.218048 112.617294,109.656975 107.495972,110.746178 
	C99.705162,112.403130 91.658257,112.855972 83.215576,113.881508 
	C83.215576,106.239655 83.215576,99.872910 83.215576,92.911713 
	C87.001015,92.911713 90.621246,92.994713 94.234634,92.873627 
	C95.830925,92.820122 97.517731,92.608925 98.977829,92.013870 
	C101.219124,91.100441 103.840553,90.097336 102.855095,86.782280 
	C101.982101,83.845566 99.765312,82.619019 96.820862,83.029785 
	C93.628349,83.475159 90.471573,84.176743 86.911713,84.843430 
z"/>
<path fill="#F6ECDE" opacity="1.000000" stroke="none" 
	d="
M17.232094,126.120972 
	C17.232286,123.685333 17.232286,121.732140 17.232286,119.054878 
	C23.861391,119.054878 29.972292,118.890968 36.055668,119.226341 
	C37.000465,119.278427 38.499596,121.573479 38.576221,122.898727 
	C38.872505,128.023010 38.696602,133.174622 38.696602,138.695526 
	C44.818237,138.695526 50.560608,138.695526 57.217983,138.695526 
	C57.217983,134.246399 57.349468,129.669632 57.179790,125.104042 
	C57.020523,120.818665 58.968735,119.075638 63.125484,119.228630 
	C66.450821,119.351021 69.796387,119.430290 73.110573,119.202652 
	C76.250389,118.986992 77.214035,120.337288 77.142998,123.258484 
	C77.022057,128.231796 77.109688,133.210175 77.109688,138.632980 
	C84.974518,138.632980 92.540344,138.632980 100.870178,138.632980 
	C100.870178,131.843689 100.870178,124.816879 100.870178,117.502754 
	C107.846336,117.502754 114.066299,117.502754 120.648743,117.502754 
	C120.648743,131.930435 120.648743,146.136261 120.648743,160.653366 
	C118.774315,160.739136 117.154015,160.877289 115.533646,160.877975 
	C85.065659,160.890854 54.597672,160.890991 24.129681,160.884491 
	C17.822794,160.883148 17.249002,160.318893 17.236553,154.074493 
	C17.218298,144.917511 17.231884,135.760452 17.232094,126.120972 
z"/>
<path fill="#F7EDE0" opacity="1.000000" stroke="none" 
	d="
M44.110424,322.727051 
	C46.073750,322.726929 47.575642,322.661835 49.070122,322.739410 
	C53.335648,322.960938 55.029812,320.925079 54.852180,316.736816 
	C54.669243,312.423492 54.811554,308.096344 54.811554,303.349854 
	C61.439190,303.349854 67.802757,303.349854 74.816055,303.349854 
	C74.816055,307.626862 74.813835,311.733276 74.816566,315.839691 
	C74.821144,322.724182 74.822464,322.726135 81.463425,322.727112 
	C92.618973,322.728699 103.774513,322.727509 114.930061,322.727509 
	C116.730659,322.727509 118.531258,322.727539 120.666298,322.727539 
	C120.666298,329.558777 120.666298,335.956757 120.666298,342.677490 
	C86.372757,342.677490 52.171707,342.677490 17.242468,342.677490 
	C17.242468,335.546570 17.242125,328.620544 17.242582,321.694519 
	C17.242924,316.532990 17.262972,311.371399 17.238726,306.209991 
	C17.222277,302.709106 18.900692,301.070892 22.417641,301.144104 
	C26.079063,301.220337 29.746881,301.261963 33.405354,301.132935 
	C37.285408,300.996094 38.763195,302.960785 38.729206,306.576050 
	C38.693211,310.405212 38.892586,314.244659 38.675453,318.061768 
	C38.461720,321.819092 39.997631,323.291931 44.110424,322.727051 
z"/>
<path fill="#F7EFE2" opacity="1.000000" stroke="none" 
	d="
M17.251995,260.957397 
	C17.252100,250.810593 17.427652,241.151031 17.165354,231.503387 
	C17.060617,227.651108 18.494349,226.546951 22.056683,226.687103 
	C26.847942,226.875626 31.652199,226.733841 36.950790,226.733841 
	C37.061481,228.912994 37.330097,230.687180 37.205784,232.433395 
	C36.874493,237.086853 38.785728,238.925217 43.566559,238.894577 
	C67.369598,238.742020 91.174149,238.824966 114.978165,238.825027 
	C116.772995,238.825027 118.567818,238.825043 120.678406,238.825043 
	C120.678406,245.669815 120.678406,252.057236 120.678406,259.034241 
	C92.972275,259.034241 65.431885,259.034241 37.375229,259.034241 
	C37.375229,263.181122 37.375229,266.764282 37.375229,270.693054 
	C30.493853,270.693054 24.138727,270.693054 17.251797,270.693054 
	C17.251797,267.351471 17.251797,264.400452 17.251995,260.957397 
z"/>
<path fill="#F4E7D6" opacity="1.000000" stroke="none" 
	d="
M80.999977,296.746826 
	C61.689045,296.746765 42.878120,296.755219 24.067204,296.742401 
	C17.910654,296.738220 17.219643,296.022400 17.198856,289.840973 
	C17.188780,286.844574 17.289454,283.844604 17.175140,280.852539 
	C17.022095,276.846710 18.864561,275.160736 22.834814,275.188110 
	C34.653503,275.269714 46.473118,275.216949 58.292370,275.216858 
	C77.103294,275.216766 95.914215,275.216827 114.725143,275.216827 
	C116.527786,275.216827 118.330421,275.216827 120.580139,275.216827 
	C120.580139,282.460297 120.580139,289.312042 120.580139,296.747070 
	C107.366150,296.747070 94.433067,296.747070 80.999977,296.746826 
z"/>
<path fill="#CD8F45" opacity="1.000000" stroke="none" 
	d="
M168.903503,332.770996 
	C167.580338,332.029205 166.253952,330.910553 164.895905,329.439575 
	C166.209595,330.189575 167.554947,331.291870 168.903503,332.770996 
z"/>
<path fill="#CD8F45" opacity="1.000000" stroke="none" 
	d="
M152.897049,307.036865 
	C152.260803,306.520813 151.661301,305.625519 151.107330,304.365662 
	C151.746506,304.886597 152.340164,305.772095 152.897049,307.036865 
z"/>
<path fill="#CD8F45" opacity="1.000000" stroke="none" 
	d="
M154.912994,312.925049 
	C154.338348,312.720154 153.766769,312.189423 153.217499,311.329712 
	C153.798538,311.533600 154.357285,312.066406 154.912994,312.925049 
z"/>
<path fill="#CD8F45" opacity="1.000000" stroke="none" 
	d="
M178.940125,340.593201 
	C178.280182,340.547546 177.561569,340.166626 176.769043,339.447388 
	C177.423904,339.491974 178.152679,339.874969 178.940125,340.593201 
z"/>
<path fill="#CD8F45" opacity="1.000000" stroke="none" 
	d="
M174.946243,338.467773 
	C174.390839,338.373779 173.782822,337.985138 173.103180,337.290771 
	C173.652252,337.381073 174.272934,337.777130 174.946243,338.467773 
z"/>
<path fill="#CD8F45" opacity="1.000000" stroke="none" 
	d="
M172.962189,336.647308 
	C172.341568,336.556732 171.670212,336.141663 170.947815,335.393555 
	C171.568359,335.481323 172.239899,335.902069 172.962189,336.647308 
z"/>
<path fill="#CD8F45" opacity="1.000000" stroke="none" 
	d="
M170.917435,334.760559 
	C170.269424,334.659637 169.596863,334.217682 168.887726,333.434113 
	C169.531723,333.534851 170.212296,333.977203 170.917435,334.760559 
z"/>
<path fill="#CD8F45" opacity="1.000000" stroke="none" 
	d="
M164.903259,328.798523 
	C164.276260,328.664307 163.637482,328.190521 162.964767,327.377258 
	C163.584381,327.511505 164.237915,327.985229 164.903259,328.798523 
z"/>
<path fill="#CD8F45" opacity="1.000000" stroke="none" 
	d="
M162.937775,326.750580 
	C162.344345,326.602142 161.728317,326.133423 161.104675,325.333069 
	C161.703094,325.477722 162.309143,325.954010 162.937775,326.750580 
z"/>
<path fill="#CD8F45" opacity="1.000000" stroke="none" 
	d="
M158.922195,320.867523 
	C158.331879,320.685852 157.734100,320.177551 157.147919,319.335419 
	C157.744583,319.514679 158.329666,320.027802 158.922195,320.867523 
z"/>
<path fill="#CD8F45" opacity="1.000000" stroke="none" 
	d="
M182.931091,342.589783 
	C182.214478,342.583344 181.429977,342.225494 180.564728,341.512878 
	C181.277084,341.518250 182.070145,341.878326 182.931091,342.589783 
z"/>
<path fill="#CD8F45" opacity="1.000000" stroke="none" 
	d="
M156.894989,316.976166 
	C156.294846,316.772339 155.701950,316.229584 155.127930,315.344147 
	C155.731964,315.546722 156.317093,316.091980 156.894989,316.976166 
z"/>
<path fill="#CD8F45" opacity="1.000000" stroke="none" 
	d="
M150.951385,296.750122 
	C150.373917,296.589630 149.771637,296.114685 149.177246,295.322052 
	C149.765625,295.481445 150.346100,295.958557 150.951385,296.750122 
z"/>
</svg>